<?xml version="1.0" standalone="no"?>
<!DOCTYPE svg PUBLIC "-//W3C//DTD SVG 20010904//EN"
 "http://www.w3.org/TR/2001/REC-SVG-20010904/DTD/svg10.dtd">
<svg version="1.0" xmlns="http://www.w3.org/2000/svg"
 width="126.000000pt" height="68.000000pt" viewBox="0 0 126.000000 68.000000"
 preserveAspectRatio="xMidYMid meet">

<g transform="translate(0.000000,68.000000) scale(0.100000,-0.100000)"
fill="#000000" stroke="none">
<path d="M335 564 c-82 -18 -160 -36 -172 -39 -23 -5 -23 -6 -23 -220 0 -208
-1 -215 -20 -215 -13 0 -20 -7 -20 -20 0 -20 7 -20 540 -20 533 0 540 0 540
20 0 16 -7 20 -30 20 l-30 0 0 198 0 198 -302 55 -303 55 -3 -253 c-3 -338
-21 -338 -24 0 l-3 253 -150 -32z m95 -88 c0 -24 -23 -41 -41 -30 -10 6 -12
38 -2 47 3 4 15 7 25 7 12 0 18 -7 18 -24z m215 10 c25 -18 13 -49 -17 -44
-17 2 -24 11 -26 31 -4 30 12 36 43 13z m-280 -17 c5 -14 2 -25 -6 -30 -22
-14 -29 -11 -29 14 0 40 24 51 35 16z m365 -14 c0 -20 -5 -25 -25 -25 -20 0
-25 5 -25 25 0 20 5 25 25 25 20 0 25 -5 25 -25z m-450 -10 c0 -18 -5 -25 -20
-25 -15 0 -20 7 -20 25 0 18 5 25 20 25 15 0 20 -7 20 -25z m544 19 c27 -10
20 -44 -9 -44 -20 0 -25 5 -25 25 0 26 7 29 34 19z m-604 -29 c0 -16 -6 -25
-15 -25 -9 0 -15 9 -15 25 0 16 6 25 15 25 9 0 15 -9 15 -25z m681 15 c10 0
13 -33 3 -42 -14 -14 -44 6 -44 29 0 19 4 24 16 19 9 -3 20 -6 25 -6z m99 -36
c0 -33 -33 -30 -38 4 -3 17 2 22 17 22 16 0 21 -6 21 -26z m60 -10 c0 -20 -4
-25 -16 -20 -9 3 -18 6 -20 6 -2 0 -4 9 -4 20 0 13 7 20 20 20 15 0 20 -7 20
-26z m-630 -30 c0 -19 -5 -24 -25 -24 -30 0 -35 33 -8 49 23 12 33 5 33 -25z
m-65 -5 c0 -15 -7 -25 -17 -27 -13 -3 -18 3 -18 21 0 13 3 27 7 31 13 12 28
-1 28 -25z m290 6 c0 -14 -8 -21 -27 -23 -24 -3 -28 0 -28 23 0 23 4 26 28 23
19 -2 27 -9 27 -23z m75 -10 c0 -20 -5 -25 -25 -25 -20 0 -25 5 -25 25 0 20 5
25 25 25 20 0 25 -5 25 -25z m-510 -9 c0 -13 -7 -26 -15 -30 -11 -4 -15 1 -15
18 0 12 3 26 7 29 13 14 23 6 23 -17z m58 2 c-5 -34 -38 -37 -38 -4 0 20 5 26
21 26 15 0 20 -5 17 -22z m562 -3 c0 -20 -5 -25 -25 -25 -20 0 -25 5 -25 25 0
20 5 25 25 25 20 0 25 -5 25 -25z m70 -11 c0 -21 -4 -25 -22 -22 -15 2 -24 11
-26 26 -3 18 1 22 22 22 21 0 26 -5 26 -26z m90 -10 c0 -33 -33 -30 -38 4 -3
17 2 22 17 22 16 0 21 -6 21 -26z m60 -4 c0 -13 -7 -20 -20 -20 -13 0 -20 7
-20 20 0 13 7 20 20 20 13 0 20 -7 20 -20z m-630 -66 c0 -30 -3 -34 -25 -34
-22 0 -25 4 -25 34 0 25 5 36 18 39 26 6 32 -1 32 -39z m-60 2 c0 -22 -6 -36
-16 -40 -24 -9 -24 -9 -24 34 0 33 3 40 20 40 16 0 20 -7 20 -34z m290 -1 c0
-32 -2 -35 -30 -35 -28 0 -30 3 -30 35 0 32 2 35 30 35 28 0 30 -3 30 -35z
m70 -6 c0 -38 -1 -40 -27 -37 -47 5 -45 78 2 78 23 0 25 -4 25 -41z m-450 -3
c0 -34 -1 -34 -45 -34 -43 0 -45 1 -45 28 0 31 8 36 58 38 30 1 32 -1 32 -32z
m557 22 c19 -26 9 -53 -19 -56 -26 -3 -28 -1 -28 32 0 29 4 36 19 36 10 0 23
-6 28 -12z m71 -30 c-2 -25 -8 -33 -23 -33 -15 0 -21 8 -23 33 -3 29 -1 32 23
32 24 0 26 -3 23 -32z m152 -14 c0 -33 -2 -36 -22 -30 -13 3 -35 6 -50 6 -24
0 -28 4 -28 30 0 29 1 30 50 30 l50 0 0 -36z m-630 -79 l0 -65 -50 0 -50 0 0
59 c0 65 2 66 73 70 27 1 27 1 27 -64z m273 55 c26 0 27 -1 27 -60 l0 -60 -65
0 -65 0 0 66 0 67 38 -7 c20 -3 49 -6 65 -6z m-423 -60 l0 -60 -45 0 -45 0 0
54 c0 58 4 62 63 65 27 1 27 0 27 -59z m598 50 l32 0 0 -55 0 -55 -60 0 -60 0
0 53 c0 60 6 71 35 63 11 -3 35 -6 53 -6z m160 -6 c19 -6 22 -13 22 -55 l0
-49 -50 0 -50 0 0 55 c0 53 1 55 28 55 15 0 37 -3 50 -6z"/>
</g>
</svg>
