<?xml version="1.0" standalone="no"?>
<!DOCTYPE svg PUBLIC "-//W3C//DTD SVG 20010904//EN"
 "http://www.w3.org/TR/2001/REC-SVG-20010904/DTD/svg10.dtd">
<svg version="1.0" xmlns="http://www.w3.org/2000/svg"
 width="123.000000pt" height="78.000000pt" viewBox="0 0 123.000000 78.000000"
 preserveAspectRatio="xMidYMid meet">

<g transform="translate(0.000000,78.000000) scale(0.100000,-0.100000)"
fill="#000000" stroke="none">
<path d="M723 694 l-63 -35 0 -69 0 -69 -30 6 -30 6 0 -217 c0 -134 -4 -216
-10 -216 -6 0 -11 84 -12 218 l-3 219 -232 -105 -233 -106 0 -113 0 -113 -35
0 c-28 0 -35 -4 -35 -20 0 -20 7 -20 575 -20 561 0 575 0 575 19 0 13 -8 21
-22 23 -23 3 -23 5 -26 185 l-2 182 -50 16 -49 16 -3 70 -3 71 -103 44 c-57
24 -108 44 -113 44 -5 0 -10 -140 -12 -317 l-2 -318 -3 318 c-1 174 -5 317 -9
317 -5 0 -36 -16 -70 -36z m57 -54 c0 -15 -13 -26 -46 -40 -55 -24 -64 -25
-64 -5 0 8 21 26 48 39 58 31 62 31 62 6z m231 -46 c14 -8 11 -34 -3 -33 -7 0
-47 13 -88 28 -58 22 -76 33 -78 50 -3 21 -2 20 79 -9 45 -17 86 -33 90 -36z
m-231 -33 c0 -12 -14 -23 -43 -35 -53 -20 -67 -20 -67 -1 0 13 70 52 98 54 6
1 12 -7 12 -18z m160 -10 c47 -16 75 -30 63 -30 l-23 -1 -2 -212 -3 -213 -2
212 -3 213 -23 -2 c-12 0 -41 4 -64 11 -32 9 -43 17 -43 31 0 25 0 25 100 -9z
m-160 -61 c0 -21 -26 -36 -84 -47 -47 -10 -29 26 24 47 59 23 60 23 60 0z m84
14 c9 -3 16 -15 16 -26 0 -28 -34 -19 -38 10 -4 24 -2 25 22 16z m94 -51 c-5
-25 -28 -28 -28 -4 0 12 6 21 16 21 9 0 14 -7 12 -17z m71 8 c18 -12 6 -42
-14 -35 -8 3 -15 15 -15 25 0 21 8 23 29 10z m-109 -21 c0 -11 -4 -20 -10 -20
-5 0 -10 9 -10 20 0 11 5 20 10 20 6 0 10 -9 10 -20z m160 -11 c0 -24 -23 -21
-28 4 -2 10 3 17 12 17 10 0 16 -9 16 -21z m50 -15 c0 -8 -7 -14 -15 -14 -8 0
-15 9 -15 20 0 13 5 18 15 14 8 -4 15 -12 15 -20z m-350 -3 c0 -14 -12 -22
-44 -30 -60 -15 -68 -14 -64 6 2 9 21 22 43 29 57 17 65 16 65 -5z m98 -8 c3
-17 -1 -20 -17 -16 -26 7 -29 46 -3 41 9 -2 18 -13 20 -25z m-400 -15 c-3 -19
-24 -29 -168 -74 -91 -28 -167 -47 -169 -42 -1 5 -1 12 3 15 5 6 314 120 329
122 5 1 7 -9 5 -21z m480 5 c-5 -25 -28 -28 -28 -4 0 12 6 21 16 21 9 0 14 -7
12 -17z m80 -7 c3 -13 -1 -17 -14 -14 -11 2 -20 11 -22 22 -3 13 1 17 14 14
11 -2 20 -11 22 -22z m-118 0 c0 -8 -4 -18 -10 -21 -5 -3 -10 3 -10 14 0 12 5
21 10 21 6 0 10 -6 10 -14z m160 -12 c0 -8 -7 -14 -15 -14 -15 0 -21 21 -9 33
10 9 24 -2 24 -19z m50 -15 c0 -24 -23 -21 -28 4 -2 10 3 17 12 17 10 0 16 -9
16 -21z m-350 -24 c0 -17 -6 -25 -17 -25 -10 0 -35 -3 -57 -7 -33 -5 -38 -4
-34 13 2 12 18 22 48 30 62 17 60 17 60 -11z m100 -6 c0 -25 -33 -22 -38 4 -2
12 3 17 17 17 15 0 21 -6 21 -21z m40 1 c0 -11 -4 -20 -10 -20 -5 0 -10 9 -10
20 0 11 5 20 10 20 6 0 10 -9 10 -20z m38 3 c-5 -25 -28 -28 -28 -4 0 12 6 21
16 21 9 0 14 -7 12 -17z m80 -7 c3 -13 -1 -17 -14 -14 -11 2 -20 11 -22 22 -3
13 1 17 14 14 11 -2 20 -11 22 -22z m42 -7 c0 -24 -23 -21 -28 4 -2 10 3 17
12 17 10 0 16 -9 16 -21z m50 -10 c0 -24 -23 -21 -28 4 -2 10 3 17 12 17 10 0
16 -9 16 -21z m-650 -28 c0 -21 5 -20 -213 -61 -128 -24 -127 -24 -127 -7 0 9
53 25 158 49 188 43 182 43 182 19z m480 -7 c0 -8 -7 -14 -15 -14 -15 0 -21
21 -9 33 10 9 24 -2 24 -19z m-40 -4 c0 -11 -4 -20 -10 -20 -5 0 -10 9 -10 20
0 11 5 20 10 20 6 0 10 -9 10 -20z m118 3 c-2 -10 -10 -18 -18 -18 -8 0 -16 8
-18 18 -2 12 3 17 18 17 15 0 20 -5 18 -17z m42 -9 c0 -8 -7 -14 -15 -14 -15
0 -21 21 -9 33 10 9 24 -2 24 -19z m-300 -3 c0 -19 -34 -31 -87 -31 -39 0 -25
34 17 41 62 11 70 10 70 -10z m100 -1 c0 -13 -7 -20 -20 -20 -13 0 -20 7 -20
20 0 13 7 20 20 20 13 0 20 -7 20 -20z m248 -3 c2 -10 -3 -17 -12 -17 -10 0
-16 9 -16 21 0 24 23 21 28 -4z m-168 -43 c0 -8 -7 -14 -15 -14 -15 0 -21 21
-9 33 10 9 24 -2 24 -19z m78 3 c2 -12 -3 -17 -17 -17 -12 0 -21 6 -21 13 0
31 32 34 38 4z m-118 -1 c0 -8 -4 -18 -10 -21 -5 -3 -10 3 -10 14 0 12 5 21
10 21 6 0 10 -6 10 -14z m160 -7 c0 -24 -23 -21 -28 4 -2 10 3 17 12 17 10 0
16 -9 16 -21z m50 -4 c0 -8 -7 -15 -15 -15 -8 0 -15 7 -15 15 0 8 7 15 15 15
8 0 15 -7 15 -15z m-350 -20 c0 -24 -3 -25 -56 -25 -47 0 -55 3 -52 18 2 12
16 19 48 23 25 3 48 7 53 7 4 1 7 -9 7 -23z m-300 -9 c0 -23 -2 -23 -132 -30
-73 -4 -150 -10 -171 -13 -30 -4 -37 -2 -37 11 0 9 6 16 13 17 9 0 285 33 320
38 4 1 7 -10 7 -23z m400 4 c0 -13 -7 -20 -20 -20 -13 0 -20 7 -20 20 0 13 7
20 20 20 13 0 20 -7 20 -20z m40 -20 c0 -11 -4 -20 -10 -20 -5 0 -10 9 -10 20
0 11 5 20 10 20 6 0 10 -9 10 -20z m40 0 c0 -11 -7 -20 -15 -20 -8 0 -15 9
-15 20 0 11 7 20 15 20 8 0 15 -9 15 -20z m78 -3 c2 -12 -3 -17 -17 -17 -15 0
-21 6 -21 21 0 25 33 22 38 -4z m42 -2 c0 -8 -7 -15 -15 -15 -8 0 -15 7 -15
15 0 8 7 15 15 15 8 0 15 -7 15 -15z m48 -2 c-4 -22 -22 -20 -26 1 -2 10 3 16
13 16 10 0 15 -7 13 -17z"/>
</g>
</svg>
