<?xml version="1.0" standalone="no"?>
<!DOCTYPE svg PUBLIC "-//W3C//DTD SVG 20010904//EN"
 "http://www.w3.org/TR/2001/REC-SVG-20010904/DTD/svg10.dtd">
<svg version="1.0" xmlns="http://www.w3.org/2000/svg"
 width="64.000000pt" height="105.000000pt" viewBox="0 0 64.000000 105.000000"
 preserveAspectRatio="xMidYMid meet">

<g transform="translate(0.000000,105.000000) scale(0.100000,-0.100000)"
fill="#000000" stroke="none">
<path d="M330 925 c0 -43 4 -75 10 -75 6 0 10 32 10 75 0 43 -4 75 -10 75 -6
0 -10 -32 -10 -75z"/>
<path d="M247 812 c-18 -19 -23 -62 -9 -62 16 0 42 36 42 58 0 27 -11 28 -33
4z"/>
<path d="M300 802 c0 -26 4 -30 38 -36 74 -12 92 -8 92 19 0 20 -6 25 -37 30
-21 4 -50 9 -65 11 -25 5 -28 3 -28 -24z"/>
<path d="M217 708 c-20 -15 -27 -28 -27 -54 0 -40 3 -41 41 -13 20 14 29 29
29 49 0 38 -10 42 -43 18z"/>
<path d="M280 691 c0 -38 0 -38 46 -45 26 -3 66 -6 90 -6 43 0 44 1 44 34 l0
34 -75 11 c-108 16 -105 17 -105 -28z"/>
<path d="M163 579 l-43 -30 0 -235 0 -234 -35 0 c-28 0 -35 -4 -35 -20 0 -19
7 -20 260 -20 253 0 260 1 260 20 0 16 -7 20 -35 20 l-35 0 0 254 0 253 -100
12 c-56 6 -114 11 -130 11 l-30 0 0 -265 c0 -170 -4 -265 -10 -265 -6 0 -10
95 -10 265 0 146 -3 265 -7 265 -5 -1 -27 -14 -50 -31z m195 -32 c2 -12 -3
-17 -17 -17 -15 0 -21 6 -21 21 0 25 33 22 38 -4z m62 -2 c0 -8 -9 -15 -20
-15 -11 0 -20 7 -20 15 0 8 9 15 20 15 11 0 20 -7 20 -15z m-230 -9 c0 -7 -9
-16 -20 -19 -22 -6 -29 18 -7 26 21 9 27 7 27 -7z m170 -41 c0 -8 -9 -15 -20
-15 -11 0 -20 7 -20 15 0 8 9 15 20 15 11 0 20 -7 20 -15z m60 -5 c0 -13 -7
-20 -20 -20 -13 0 -20 7 -20 20 0 13 7 20 20 20 13 0 20 -7 20 -20z m-232 -7
c-4 -23 -38 -30 -38 -8 0 9 5 13 10 10 6 -3 10 -1 10 4 0 6 5 11 11 11 6 0 9
-8 7 -17z m172 -43 c0 -13 -7 -20 -20 -20 -13 0 -20 7 -20 20 0 13 7 20 20 20
13 0 20 -7 20 -20z m44 14 c23 -9 20 -34 -4 -34 -13 0 -20 7 -20 20 0 22 1 23
24 14z m-214 -23 c0 -10 -9 -21 -20 -24 -15 -4 -20 0 -20 15 0 10 5 16 10 13
6 -3 10 -1 10 4 0 6 5 11 10 11 6 0 10 -8 10 -19z m154 -27 c23 -9 20 -34 -4
-34 -13 0 -20 7 -20 20 0 22 1 23 24 14z m76 -24 c0 -13 -7 -20 -20 -20 -13 0
-20 7 -20 20 0 13 7 20 20 20 13 0 20 -7 20 -20z m-230 -4 c0 -8 -9 -16 -20
-19 -14 -4 -20 0 -20 12 0 10 8 17 20 18 11 1 20 -4 20 -11z m170 -46 c0 -13
-7 -20 -20 -20 -13 0 -20 7 -20 20 0 13 7 20 20 20 13 0 20 -7 20 -20z m60 0
c0 -13 -7 -20 -20 -20 -13 0 -20 7 -20 20 0 13 7 20 20 20 13 0 20 -7 20 -20z
m-230 -4 c0 -8 -9 -16 -20 -19 -14 -4 -20 0 -20 12 0 10 8 17 20 18 11 1 20
-4 20 -11z m168 -49 c2 -12 -3 -17 -17 -17 -15 0 -21 6 -21 21 0 25 33 22 38
-4z m-170 -4 c-4 -19 -38 -27 -38 -8 0 12 14 22 33 24 5 1 7 -6 5 -16z m232 2
c0 -8 -9 -15 -20 -15 -11 0 -20 7 -20 15 0 8 9 15 20 15 11 0 20 -7 20 -15z
m-230 -55 c0 -13 -7 -20 -20 -20 -22 0 -28 25 -7 33 22 10 27 7 27 -13z m168
3 c-5 -26 -38 -29 -38 -4 0 15 6 21 21 21 14 0 19 -5 17 -17z m62 -3 c0 -13
-7 -20 -20 -20 -13 0 -20 7 -20 20 0 13 7 20 20 20 13 0 20 -7 20 -20z m-62
-53 c2 -12 -3 -17 -17 -17 -15 0 -21 6 -21 21 0 25 33 22 38 -4z m60 0 c2 -12
-3 -17 -17 -17 -15 0 -21 6 -21 21 0 25 33 22 38 -4z m-228 -3 c0 -8 -9 -14
-20 -14 -11 0 -20 6 -20 13 0 7 9 13 20 14 11 1 20 -4 20 -13z m0 -48 c0 -8
-9 -16 -20 -19 -14 -4 -20 0 -20 12 0 10 8 17 20 18 11 1 20 -4 20 -11z m170
-1 c0 -8 -9 -15 -20 -15 -11 0 -20 7 -20 15 0 8 9 15 20 15 11 0 20 -7 20 -15z
m60 0 c0 -8 -9 -15 -20 -15 -11 0 -20 7 -20 15 0 8 9 15 20 15 11 0 20 -7 20
-15z"/>
</g>
</svg>
