<svg xmlns="http://www.w3.org/2000/svg" xmlns:xlink="http://www.w3.org/1999/xlink" version="1.1" width="256" height="256" viewBox="0 0 256 256" xml:space="preserve">
<g style="stroke: none; stroke-width: 0; stroke-dasharray: none; stroke-linecap: butt; stroke-linejoin: miter; stroke-miterlimit: 10; fill: none; fill-rule: nonzero; opacity: 1;" transform="translate(1.4065934065934016 1.4065934065934016) scale(2.81 2.81)">
	<path d="M 87.102 40.001 c 2.527 -2.535 3.494 -6.234 2.532 -9.682 l -2.162 -7.747 c -0.624 -2.236 -2.661 -3.782 -4.981 -3.782 c -2.321 0 -4.358 1.546 -4.981 3.782 l -2.162 7.747 c -0.962 3.448 0.005 7.147 2.532 9.682 l 1.561 1.566 l 0 0 l -1.13 25.271 c -0.106 2.382 1.796 4.371 4.18 4.371 c 2.384 0 4.287 -1.989 4.18 -4.371 l -1.13 -25.271 l 0 0 L 87.102 40.001 z" style="stroke: none; stroke-width: 1; stroke-dasharray: none; stroke-linecap: butt; stroke-linejoin: miter; stroke-miterlimit: 10; fill: rgb(255,255,255); fill-rule: nonzero; opacity: 1;" transform=" matrix(1 0 0 1 0 0) " stroke-linecap="round"/>
	<path d="M 45 18.79 c -14.475 0 -26.21 11.735 -26.21 26.21 v 0 c 0 14.475 11.735 26.21 26.21 26.21 S 71.21 59.475 71.21 45 v 0 C 71.21 30.525 59.475 18.79 45 18.79 z M 45 64.153 c -10.561 0 -19.153 -8.592 -19.153 -19.153 S 34.439 25.847 45 25.847 S 64.153 34.439 64.153 45 S 55.561 64.153 45 64.153 z" style="stroke: none; stroke-width: 1; stroke-dasharray: none; stroke-linecap: butt; stroke-linejoin: miter; stroke-miterlimit: 10; fill: rgb(255,255,255); fill-rule: nonzero; opacity: 1;" transform=" matrix(1 0 0 1 0 0) " stroke-linecap="round"/>
	<path d="M 45 28.871 c -8.894 0 -16.129 7.236 -16.129 16.129 S 36.106 61.129 45 61.129 S 61.129 53.894 61.129 45 S 53.893 28.871 45 28.871 z M 45 36.431 c -4.725 0 -8.569 3.844 -8.569 8.569 c 0 0.835 -0.677 1.512 -1.512 1.512 S 33.407 45.835 33.407 45 c 0 -6.393 5.2 -11.593 11.593 -11.593 c 0.835 0 1.512 0.677 1.512 1.512 S 45.835 36.431 45 36.431 z" style="stroke: none; stroke-width: 1; stroke-dasharray: none; stroke-linecap: butt; stroke-linejoin: miter; stroke-miterlimit: 10; fill: rgb(255,255,255); fill-rule: nonzero; opacity: 1;" transform=" matrix(1 0 0 1 0 0) " stroke-linecap="round"/>
	<path d="M 15.358 31.211 L 14.78 18.79 h -2.551 v 0 v 13.842 c 0 0.847 -0.687 1.534 -1.534 1.534 S 9.16 33.479 9.16 32.632 V 18.79 v 0 H 6.205 v 0 v 13.842 c 0 0.847 -0.687 1.534 -1.534 1.534 s -1.534 -0.687 -1.534 -1.534 V 18.79 v 0 H 0.585 L 0.007 31.211 c -0.087 1.877 0.598 3.708 1.896 5.066 l 2.832 2.963 L 3.502 66.839 c -0.106 2.382 1.796 4.371 4.18 4.371 s 4.287 -1.989 4.18 -4.371 L 10.629 39.24 l 2.832 -2.963 C 14.76 34.919 15.445 33.088 15.358 31.211 z" style="stroke: none; stroke-width: 1; stroke-dasharray: none; stroke-linecap: butt; stroke-linejoin: miter; stroke-miterlimit: 10; fill: rgb(255,255,255); fill-rule: nonzero; opacity: 1;" transform=" matrix(1 0 0 1 0 0) " stroke-linecap="round"/>
</g>
</svg>