<svg xmlns="http://www.w3.org/2000/svg" xmlns:xlink="http://www.w3.org/1999/xlink" version="1.1" width="256" height="256" viewBox="0 0 256 256" xml:space="preserve">
<g style="stroke: none; stroke-width: 0; stroke-dasharray: none; stroke-linecap: butt; stroke-linejoin: miter; stroke-miterlimit: 10; fill: none; fill-rule: nonzero; opacity: 1;" transform="translate(1.4065934065934016 1.4065934065934016) scale(2.81 2.81)">
	<path d="M 24.448 80.853 c -4.716 0 -9.163 -1.812 -12.541 -5.114 C 1.952 66.006 -2.592 47.034 1.562 32.547 c 0.353 -1.232 1.449 -2.103 2.729 -2.169 c 1.263 -0.061 2.459 0.687 2.938 1.876 c 4.347 10.802 9.083 11.303 15.08 11.938 c 4.563 0.482 9.734 1.029 14.693 5.876 c 7.077 6.919 7.206 18.306 0.287 25.383 c -3.351 3.428 -7.837 5.347 -12.631 5.4 C 24.588 80.852 24.518 80.853 24.448 80.853 z M 16.101 71.447 c 2.283 2.232 5.293 3.406 8.488 3.404 c 3.191 -0.036 6.178 -1.313 8.409 -3.596 c 4.606 -4.712 4.521 -12.292 -0.191 -16.897 c -3.468 -3.391 -7.018 -3.766 -11.129 -4.2 c -5.113 -0.541 -10.746 -1.137 -15.657 -7.644 C 5.555 53.282 9.373 64.87 16.101 71.447 z" style="stroke: none; stroke-width: 1; stroke-dasharray: none; stroke-linecap: butt; stroke-linejoin: miter; stroke-miterlimit: 10; fill: rgb(255,255,255); fill-rule: nonzero; opacity: 1;" transform=" matrix(1 0 0 1 0 0) " stroke-linecap="round"/>
	<path d="M 85.554 59.626 c -1.219 0 -2.323 -0.74 -2.782 -1.88 c -4.348 -10.803 -9.084 -11.304 -15.08 -11.937 c -4.563 -0.483 -9.734 -1.029 -14.692 -5.877 c -7.078 -6.918 -7.206 -18.305 -0.288 -25.382 c 6.919 -7.078 18.306 -7.206 25.383 -0.287 l -0.001 0 c 9.956 9.732 14.5 28.703 10.346 43.191 c -0.354 1.231 -1.449 2.103 -2.729 2.169 C 85.657 59.625 85.605 59.626 85.554 59.626 z M 65.548 15.154 c -3.105 0 -6.209 1.2 -8.546 3.59 c -4.606 4.711 -4.521 12.292 0.191 16.898 c 3.468 3.39 7.018 3.765 11.129 4.2 c 5.113 0.541 10.746 1.137 15.657 7.643 c 0.466 -10.768 -3.352 -22.355 -10.08 -28.932 c 0 0 -0.001 0 -0.001 0 C 71.578 16.284 68.562 15.154 65.548 15.154 z" style="stroke: none; stroke-width: 1; stroke-dasharray: none; stroke-linecap: butt; stroke-linejoin: miter; stroke-miterlimit: 10; fill: rgb(255,255,255); fill-rule: nonzero; opacity: 1;" transform=" matrix(1 0 0 1 0 0) " stroke-linecap="round"/>
	<path d="M 44.07 89.975 c -3.979 0 -7.892 -0.495 -11.523 -1.536 c -1.232 -0.354 -2.103 -1.449 -2.169 -2.729 c -0.066 -1.279 0.688 -2.46 1.876 -2.938 c 10.802 -4.348 11.303 -9.084 11.938 -15.08 c 0.482 -4.563 1.029 -9.734 5.876 -14.692 c 6.92 -7.077 18.306 -7.206 25.383 -0.288 c 3.428 3.352 5.347 7.838 5.4 12.632 c 0.055 4.794 -1.761 9.322 -5.112 12.751 C 68.445 85.553 55.965 89.975 44.07 89.975 z M 42.515 83.979 c 10.764 0.458 22.355 -3.352 28.933 -10.08 c 0 -0.001 0 -0.001 0 -0.001 c 2.231 -2.281 3.44 -5.296 3.404 -8.487 s -1.313 -6.178 -3.596 -8.409 c -4.713 -4.605 -12.292 -4.521 -16.897 0.191 c -3.391 3.468 -3.766 7.018 -4.2 11.129 C 49.617 73.436 49.021 79.068 42.515 83.979 z" style="stroke: none; stroke-width: 1; stroke-dasharray: none; stroke-linecap: butt; stroke-linejoin: miter; stroke-miterlimit: 10; fill: rgb(255,255,255); fill-rule: nonzero; opacity: 1;" transform=" matrix(1 0 0 1 0 0) " stroke-linecap="round"/>
	<path d="M 27.095 42.395 c -4.528 0 -9.059 -1.698 -12.545 -5.106 c -7.077 -6.918 -7.206 -18.305 -0.287 -25.382 h 0 c 9.731 -9.955 28.702 -14.5 43.191 -10.345 c 1.231 0.353 2.103 1.449 2.169 2.729 c 0.066 1.279 -0.688 2.459 -1.876 2.938 c -10.803 4.347 -11.304 9.083 -11.937 15.08 c -0.483 4.563 -1.029 9.734 -5.877 14.693 C 36.422 40.592 31.76 42.394 27.095 42.395 z M 45.706 5.983 c -10.246 0 -20.937 3.759 -27.153 10.118 h 0 c -4.605 4.711 -4.52 12.292 0.191 16.897 c 4.711 4.605 12.292 4.52 16.898 -0.191 c 3.39 -3.468 3.765 -7.019 4.2 -11.129 c 0.541 -5.113 1.136 -10.746 7.643 -15.657 C 46.895 5.996 46.301 5.983 45.706 5.983 z M 16.408 14.004 h 0.01 H 16.408 z" style="stroke: none; stroke-width: 1; stroke-dasharray: none; stroke-linecap: butt; stroke-linejoin: miter; stroke-miterlimit: 10; fill: rgb(255,255,255); fill-rule: nonzero; opacity: 1;" transform=" matrix(1 0 0 1 0 0) " stroke-linecap="round"/>
</g>
</svg>