<svg xmlns="http://www.w3.org/2000/svg" xmlns:xlink="http://www.w3.org/1999/xlink" version="1.1" width="256" height="256" viewBox="0 0 256 256" xml:space="preserve">
<g style="stroke: none; stroke-width: 0; stroke-dasharray: none; stroke-linecap: butt; stroke-linejoin: miter; stroke-miterlimit: 10; fill: none; fill-rule: nonzero; opacity: 1;" transform="translate(1.4065934065934016 1.4065934065934016) scale(2.81 2.81)">
	<path d="M 12.392 62.15 l 10.172 10.469 h 15.45 v -3.251 c 0 -1.181 -0.847 -2.192 -2.009 -2.398 l -10.738 -1.909 l -5.536 -8.054 l -0.009 0.005 c -1.666 -3.498 -5.223 -5.922 -9.355 -5.922 h 0 C 4.642 51.091 0 55.732 0 61.458 v 24.214 h 20.735 v -9.065 L 9.458 65 c -0.787 -0.81 -0.769 -2.105 0.042 -2.892 C 10.31 61.322 11.606 61.34 12.392 62.15 z" style="stroke: none; stroke-width: 1; stroke-dasharray: none; stroke-linecap: butt; stroke-linejoin: miter; stroke-miterlimit: 10; fill: rgb(255,255,255); fill-rule: nonzero; opacity: 1;" transform=" matrix(1 0 0 1 0 0) " stroke-linecap="round"/>
	<path d="M 10.254 47 c 4.339 0 7.856 -3.517 7.856 -7.856 v -3.588 c 0 -4.339 -3.517 -7.856 -7.856 -7.856 s -7.856 3.517 -7.856 7.856 v 3.588 C 2.398 43.482 5.916 47 10.254 47 z" style="stroke: none; stroke-width: 1; stroke-dasharray: none; stroke-linecap: butt; stroke-linejoin: miter; stroke-miterlimit: 10; fill: rgb(255,255,255); fill-rule: nonzero; opacity: 1;" transform=" matrix(1 0 0 1 0 0) " stroke-linecap="round"/>
	<path d="M 79.632 51.091 L 79.632 51.091 c -4.132 0 -7.689 2.424 -9.355 5.922 l -0.009 -0.005 l -5.536 8.054 L 53.995 66.97 c -1.163 0.207 -2.009 1.217 -2.009 2.398 v 3.251 h 15.44 l 9.929 -10.253 c 0.784 -0.812 2.08 -0.832 2.892 -0.046 c 0.811 0.786 0.832 2.08 0.046 2.892 L 69.265 76.601 v 9.071 H 90 V 61.458 C 90 55.732 85.358 51.091 79.632 51.091 z" style="stroke: none; stroke-width: 1; stroke-dasharray: none; stroke-linecap: butt; stroke-linejoin: miter; stroke-miterlimit: 10; fill: rgb(255,255,255); fill-rule: nonzero; opacity: 1;" transform=" matrix(1 0 0 1 0 0) " stroke-linecap="round"/>
	<path d="M 71.89 39.144 c 0 4.339 3.517 7.856 7.856 7.856 c 4.339 0 7.856 -3.517 7.856 -7.856 v -3.588 c 0 -4.339 -3.517 -7.856 -7.856 -7.856 c -4.339 0 -7.856 3.517 -7.856 7.856 V 39.144 z" style="stroke: none; stroke-width: 1; stroke-dasharray: none; stroke-linecap: butt; stroke-linejoin: miter; stroke-miterlimit: 10; fill: rgb(255,255,255); fill-rule: nonzero; opacity: 1;" transform=" matrix(1 0 0 1 0 0) " stroke-linecap="round"/>
	<path d="M 19.151 19.5 c -0.001 2.573 -0.049 6.08 -0.049 6.08 l 8.497 -5.633 h 6.427 c 4.313 0 7.81 -3.496 7.81 -7.81 v 0 c 0 -4.313 -3.496 -7.81 -7.81 -7.81 H 21.735 c -4.313 0 -7.81 3.497 -7.81 7.81 v 0 C 13.925 15.544 16.11 18.433 19.151 19.5 z M 34.174 10.316 h 0.215 c 1.13 0 2.045 0.916 2.045 2.045 s -0.916 2.045 -2.045 2.045 h -0.215 c -1.13 0 -2.045 -0.916 -2.045 -2.045 S 33.044 10.316 34.174 10.316 z M 27.773 10.316 h 0.215 c 1.13 0 2.045 0.916 2.045 2.045 s -0.916 2.045 -2.045 2.045 h -0.215 c -1.13 0 -2.045 -0.916 -2.045 -2.045 S 26.643 10.316 27.773 10.316 z M 21.371 10.316 h 0.215 c 1.13 0 2.045 0.916 2.045 2.045 s -0.916 2.045 -2.045 2.045 h -0.215 c -1.13 0 -2.045 -0.916 -2.045 -2.045 S 20.242 10.316 21.371 10.316 z" style="stroke: none; stroke-width: 1; stroke-dasharray: none; stroke-linecap: butt; stroke-linejoin: miter; stroke-miterlimit: 10; fill: rgb(255,255,255); fill-rule: nonzero; opacity: 1;" transform=" matrix(1 0 0 1 0 0) " stroke-linecap="round"/>
	<path d="M 57.299 21.875 h 5.394 l 7.132 4.728 c 0 0 -0.04 -2.944 -0.041 -5.103 c 2.553 -0.896 4.386 -3.321 4.386 -6.18 v 0 c 0 -3.62 -2.935 -6.555 -6.555 -6.555 H 57.299 c -3.62 0 -6.555 2.935 -6.555 6.555 v 0 C 50.743 18.94 53.678 21.875 57.299 21.875 z M 68.554 13.556 c 1.078 0 1.959 0.874 1.959 1.951 c 0 1.078 -0.866 1.951 -1.944 1.951 h -0.015 c -1.078 0 -1.951 -0.874 -1.951 -1.951 C 66.603 14.43 67.477 13.556 68.554 13.556 z M 62.452 13.556 c 1.078 0 1.959 0.874 1.959 1.951 c 0 1.078 -0.866 1.951 -1.944 1.951 h -0.015 c -1.078 0 -1.951 -0.874 -1.951 -1.951 C 60.501 14.43 61.375 13.556 62.452 13.556 z M 56.352 13.556 c 1.078 0 1.959 0.874 1.959 1.951 c 0 1.078 -0.866 1.951 -1.944 1.951 h -0.015 c -1.078 0 -1.951 -0.874 -1.951 -1.951 C 54.4 14.43 55.274 13.556 56.352 13.556 z" style="stroke: none; stroke-width: 1; stroke-dasharray: none; stroke-linecap: butt; stroke-linejoin: miter; stroke-miterlimit: 10; fill: rgb(255,255,255); fill-rule: nonzero; opacity: 1;" transform=" matrix(1 0 0 1 0 0) " stroke-linecap="round"/>
	<path d="M 47.383 72.619 v -3.25 c 0 -3.417 2.442 -6.331 5.806 -6.929 l 2.5 -0.445 v -1.103 c 0 -5.726 -4.642 -10.368 -10.368 -10.368 h 0 c -5.726 0 -10.368 4.642 -10.368 10.368 v 1.217 l 1.857 0.33 c 3.364 0.598 5.806 3.513 5.806 6.929 v 3.25 H 47.383 z" style="stroke: none; stroke-width: 1; stroke-dasharray: none; stroke-linecap: butt; stroke-linejoin: miter; stroke-miterlimit: 10; fill: rgb(255,255,255); fill-rule: nonzero; opacity: 1;" transform=" matrix(1 0 0 1 0 0) " stroke-linecap="round"/>
	<rect x="24.83" y="76.71" rx="0" ry="0" width="40.35" height="8.96" style="stroke: none; stroke-width: 1; stroke-dasharray: none; stroke-linecap: butt; stroke-linejoin: miter; stroke-miterlimit: 10; fill: rgb(255,255,255); fill-rule: nonzero; opacity: 1;" transform=" matrix(1 0 0 1 0 0) "/>
	<path d="M 31.03 32.126 c -2.004 3.845 -1.355 7.008 -5.353 8.98 c 2.027 1.682 5.404 1.043 7.197 -0.785 c 2.559 -2.434 3.19 -4.947 4.614 -7.231 c 0.097 -0.177 0.215 -0.328 0.342 -0.467 c -0.236 0.747 -0.364 1.541 -0.364 2.366 v 3.588 c 0 4.339 3.517 7.856 7.856 7.856 h 0 c 4.339 0 7.856 -3.517 7.856 -7.856 v -3.588 c 0 -4.339 -3.517 -7.856 -7.856 -7.856 h 0 c -1.563 0 -3.016 0.462 -4.24 1.249 C 37.57 26.237 33.076 27.614 31.03 32.126 z" style="stroke: none; stroke-width: 1; stroke-dasharray: none; stroke-linecap: butt; stroke-linejoin: miter; stroke-miterlimit: 10; fill: rgb(255,255,255); fill-rule: nonzero; opacity: 1;" transform=" matrix(1 0 0 1 0 0) " stroke-linecap="round"/>
</g>
</svg>