<svg xmlns="http://www.w3.org/2000/svg" xmlns:xlink="http://www.w3.org/1999/xlink" version="1.1" width="256" height="256" viewBox="0 0 256 256" xml:space="preserve">
<g style="stroke: none; stroke-width: 0; stroke-dasharray: none; stroke-linecap: butt; stroke-linejoin: miter; stroke-miterlimit: 10; fill: none; fill-rule: nonzero; opacity: 1;" transform="translate(1.4065934065934016 1.4065934065934016) scale(2.81 2.81)">
	<path d="M 87 59.473 H 3 c -1.657 0 -3 -1.343 -3 -3 V 42.886 c 0 -4.49 3.652 -8.142 8.142 -8.142 h 73.716 c 4.489 0 8.142 3.652 8.142 8.142 v 13.586 C 90 58.13 88.657 59.473 87 59.473 z M 6 53.473 h 78 V 42.886 c 0 -1.181 -0.961 -2.142 -2.142 -2.142 H 8.142 C 6.961 40.744 6 41.705 6 42.886 V 53.473 z" style="stroke: none; stroke-width: 1; stroke-dasharray: none; stroke-linecap: butt; stroke-linejoin: miter; stroke-miterlimit: 10; fill: rgb(255,255,255); fill-rule: nonzero; opacity: 1;" transform=" matrix(1 0 0 1 0 0) " stroke-linecap="round"/>
	<path d="M 87 82.152 H 76.829 c -1.657 0 -3 -1.343 -3 -3 v -6.777 H 16.17 v 6.777 c 0 1.657 -1.343 3 -3 3 H 3 c -1.657 0 -3 -1.343 -3 -3 v -22.68 c 0 -1.657 1.343 -3 3 -3 h 84 c 1.657 0 3 1.343 3 3 v 22.68 C 90 80.81 88.657 82.152 87 82.152 z M 79.829 76.152 H 84 v -16.68 H 6 v 16.68 h 4.17 v -6.777 c 0 -1.657 1.343 -3 3 -3 h 63.659 c 1.657 0 3 1.343 3 3 V 76.152 z" style="stroke: none; stroke-width: 1; stroke-dasharray: none; stroke-linecap: butt; stroke-linejoin: miter; stroke-miterlimit: 10; fill: rgb(255,255,255); fill-rule: nonzero; opacity: 1;" transform=" matrix(1 0 0 1 0 0) " stroke-linecap="round"/>
	<path d="M 80.717 40.744 H 9.283 c -1.657 0 -3 -1.343 -3 -3 V 15.322 c 0 -4.121 3.353 -7.474 7.474 -7.474 h 62.485 c 4.121 0 7.475 3.353 7.475 7.474 v 22.422 C 83.717 39.401 82.374 40.744 80.717 40.744 z M 12.283 34.744 h 65.434 V 15.322 c 0 -0.813 -0.661 -1.474 -1.475 -1.474 H 13.757 c -0.813 0 -1.474 0.661 -1.474 1.474 V 34.744 z" style="stroke: none; stroke-width: 1; stroke-dasharray: none; stroke-linecap: butt; stroke-linejoin: miter; stroke-miterlimit: 10; fill: rgb(255,255,255); fill-rule: nonzero; opacity: 1;" transform=" matrix(1 0 0 1 0 0) " stroke-linecap="round"/>
	<path d="M 40.979 40.744 H 16.981 c -1.657 0 -3 -1.343 -3 -3 v -9.312 c 0 -3.465 2.819 -6.285 6.285 -6.285 h 17.428 c 3.466 0 6.285 2.819 6.285 6.285 v 9.312 C 43.979 39.401 42.636 40.744 40.979 40.744 z M 19.981 34.744 h 17.998 v -6.312 c 0 -0.157 -0.128 -0.285 -0.285 -0.285 H 20.266 c -0.157 0 -0.285 0.128 -0.285 0.285 V 34.744 z" style="stroke: none; stroke-width: 1; stroke-dasharray: none; stroke-linecap: butt; stroke-linejoin: miter; stroke-miterlimit: 10; fill: rgb(255,255,255); fill-rule: nonzero; opacity: 1;" transform=" matrix(1 0 0 1 0 0) " stroke-linecap="round"/>
	<path d="M 73.019 40.744 H 49.021 c -1.657 0 -3 -1.343 -3 -3 v -9.312 c 0 -3.465 2.819 -6.285 6.284 -6.285 h 17.428 c 3.466 0 6.285 2.819 6.285 6.285 v 9.312 C 76.019 39.401 74.676 40.744 73.019 40.744 z M 52.021 34.744 h 17.997 v -6.312 c 0 -0.157 -0.128 -0.285 -0.285 -0.285 H 52.306 c -0.156 0 -0.284 0.128 -0.284 0.285 V 34.744 z" style="stroke: none; stroke-width: 1; stroke-dasharray: none; stroke-linecap: butt; stroke-linejoin: miter; stroke-miterlimit: 10; fill: rgb(255,255,255); fill-rule: nonzero; opacity: 1;" transform=" matrix(1 0 0 1 0 0) " stroke-linecap="round"/>
</g>
</svg>