<svg xmlns="http://www.w3.org/2000/svg" xmlns:xlink="http://www.w3.org/1999/xlink" version="1.1" width="256" height="256" viewBox="0 0 256 256" xml:space="preserve">
<g style="stroke: none; stroke-width: 0; stroke-dasharray: none; stroke-linecap: butt; stroke-linejoin: miter; stroke-miterlimit: 10; fill: none; fill-rule: nonzero; opacity: 1;" transform="translate(1.4065934065934016 1.4065934065934016) scale(2.81 2.81)">
	<path d="M 45 0 C 25.464 0 9.625 15.838 9.625 35.375 c 0 8.722 3.171 16.693 8.404 22.86 L 45 90 l 26.97 -31.765 c 5.233 -6.167 8.404 -14.139 8.404 -22.86 C 80.375 15.838 64.538 0 45 0 z M 59.663 57.369 l -0.181 -4.049 V 18.968 c -5.489 0 -9.938 4.449 -9.938 9.938 v 23.355 c 0 0.585 0.474 1.058 1.058 1.058 h 3.361 l -1.201 7.298 C 50.306 61.365 47.7 61.77 45 61.77 c -1.78 0 -3.517 -0.178 -5.199 -0.511 l -0.794 -17.758 l 3.822 -3.998 c 1.453 -1.519 2.235 -3.593 2.147 -5.694 l -1.99 -14.18 c -0.053 -0.378 -0.377 -0.66 -0.759 -0.66 c -0.423 0 -0.766 0.343 -0.766 0.766 v 14.551 c 0 0.983 -0.669 1.896 -1.638 2.056 c -1.234 0.204 -2.306 -0.747 -2.306 -1.944 V 19.734 c 0 -0.423 -0.343 -0.766 -0.766 -0.766 h -0.678 c -0.423 0 -0.766 0.343 -0.766 0.766 v 14.551 c 0 0.983 -0.669 1.896 -1.638 2.056 c -1.234 0.204 -2.306 -0.747 -2.306 -1.944 V 19.734 c 0 -0.423 -0.343 -0.766 -0.766 -0.766 h -0.451 c -0.382 0 -0.706 0.281 -0.759 0.66 L 27.39 33.849 c -0.091 2.034 0.692 4.123 2.153 5.653 l 3.823 3.998 l -0.682 15.25 C 24.173 54.303 18.36 45.398 18.36 35.13 C 18.36 20.417 30.287 8.49 45 8.49 s 26.64 11.927 26.64 26.64 C 71.64 44.424 66.877 52.603 59.663 57.369 z" style="stroke: none; stroke-width: 1; stroke-dasharray: none; stroke-linecap: butt; stroke-linejoin: miter; stroke-miterlimit: 10; fill: rgb(255,255,255); fill-rule: nonzero; opacity: 1;" transform=" matrix(1 0 0 1 0 0) " stroke-linecap="round"/>
</g>
</svg>