<svg xmlns="http://www.w3.org/2000/svg" xmlns:xlink="http://www.w3.org/1999/xlink" version="1.1" width="256" height="256" viewBox="0 0 256 256" xml:space="preserve">
<g style="stroke: none; stroke-width: 0; stroke-dasharray: none; stroke-linecap: butt; stroke-linejoin: miter; stroke-miterlimit: 10; fill: none; fill-rule: nonzero; opacity: 1;" transform="translate(1.4065934065934016 1.4065934065934016) scale(2.81 2.81)">
	<path d="M 57.591 81.911 c -13.688 4.653 -28.732 1.407 -39.266 -8.474 c -13.326 -12.5 -15.89 -32.231 -7.333 -47.5 l -0.004 0.104 c -0.065 1.655 1.223 3.05 2.878 3.115 c 0.041 0.001 0.081 0.002 0.121 0.002 c 1.602 0 2.931 -1.266 2.995 -2.881 l 0.392 -9.886 c 0.001 -0.031 -0.008 -0.061 -0.007 -0.092 c 0.001 -0.163 -0.014 -0.324 -0.039 -0.485 c -0.009 -0.056 -0.01 -0.112 -0.021 -0.167 c -0.045 -0.211 -0.111 -0.417 -0.202 -0.615 c -0.02 -0.045 -0.05 -0.084 -0.072 -0.127 c -0.076 -0.148 -0.161 -0.292 -0.263 -0.428 c -0.051 -0.067 -0.109 -0.127 -0.166 -0.19 c -0.059 -0.066 -0.109 -0.139 -0.175 -0.201 c -0.037 -0.035 -0.08 -0.058 -0.118 -0.09 c -0.032 -0.027 -0.055 -0.062 -0.088 -0.087 c -0.039 -0.03 -0.084 -0.047 -0.124 -0.075 c -0.117 -0.083 -0.238 -0.155 -0.363 -0.219 c -0.07 -0.036 -0.139 -0.073 -0.211 -0.103 c -0.147 -0.061 -0.296 -0.105 -0.449 -0.142 c -0.059 -0.014 -0.115 -0.035 -0.175 -0.046 c -0.212 -0.037 -0.427 -0.054 -0.641 -0.045 c -0.046 0.002 -0.092 0.014 -0.139 0.018 c -0.172 0.015 -0.341 0.041 -0.508 0.085 c -0.026 0.007 -0.053 0.006 -0.079 0.013 L 3.75 16.262 c -1.589 0.466 -2.5 2.132 -2.034 3.722 c 0.467 1.59 2.136 2.5 3.722 2.034 l 1.077 -0.316 c -10.771 17.784 -8.051 41.328 7.706 56.109 C 22.707 85.772 33.728 90 44.983 90 c 4.864 0 9.774 -0.791 14.538 -2.411 c 1.568 -0.533 2.408 -2.237 1.874 -3.805 C 60.863 82.215 59.159 81.375 57.591 81.911 z" style="stroke: none; stroke-width: 1; stroke-dasharray: none; stroke-linecap: butt; stroke-linejoin: miter; stroke-miterlimit: 10; fill: rgb(255,255,255); fill-rule: nonzero; opacity: 1;" transform=" matrix(1 0 0 1 0 0) " stroke-linecap="round"/>
	<path d="M 84.562 67.981 l -1.067 0.313 c 4.485 -7.379 6.754 -15.899 6.471 -24.732 c -0.385 -12.011 -5.422 -23.153 -14.187 -31.374 C 63.624 0.787 46.264 -2.959 30.473 2.413 c -1.568 0.534 -2.407 2.238 -1.874 3.806 c 0.534 1.568 2.239 2.407 3.806 1.874 c 13.687 -4.657 28.736 -1.411 39.27 8.471 c 7.596 7.125 11.963 16.782 12.296 27.191 c 0.23 7.221 -1.503 14.203 -4.963 20.339 l 0.005 -0.133 c 0.065 -1.656 -1.223 -3.05 -2.878 -3.116 c -1.684 -0.051 -3.05 1.224 -3.116 2.878 l -0.392 9.886 c -0.001 0.031 0.008 0.061 0.007 0.093 c -0.001 0.163 0.014 0.325 0.039 0.486 c 0.009 0.055 0.01 0.111 0.021 0.165 c 0.045 0.212 0.112 0.419 0.203 0.619 c 0.017 0.038 0.042 0.071 0.061 0.108 c 0.079 0.156 0.169 0.307 0.277 0.45 c 0.046 0.061 0.1 0.115 0.15 0.173 c 0.063 0.071 0.116 0.148 0.186 0.214 c 0.041 0.038 0.088 0.065 0.13 0.1 c 0.028 0.024 0.048 0.054 0.077 0.077 c 0.046 0.036 0.097 0.062 0.145 0.094 c 0.064 0.045 0.128 0.089 0.195 0.128 c 0.088 0.051 0.179 0.094 0.271 0.136 c 0.07 0.032 0.139 0.066 0.21 0.092 c 0.103 0.038 0.209 0.064 0.316 0.089 c 0.063 0.015 0.124 0.036 0.188 0.047 c 0.168 0.03 0.338 0.046 0.51 0.047 c 0.003 0 0.006 0.001 0.009 0.001 c 0 0 0 0 0 0 c 0 0 0 0 0.001 0 c 0.176 0 0.353 -0.021 0.529 -0.053 c 0.051 -0.009 0.1 -0.021 0.15 -0.033 c 0.055 -0.013 0.11 -0.02 0.164 -0.036 l 9.782 -2.867 c 1.589 -0.466 2.5 -2.132 2.035 -3.722 C 87.817 68.426 86.148 67.516 84.562 67.981 z" style="stroke: none; stroke-width: 1; stroke-dasharray: none; stroke-linecap: butt; stroke-linejoin: miter; stroke-miterlimit: 10; fill: rgb(255,255,255); fill-rule: nonzero; opacity: 1;" transform=" matrix(1 0 0 1 0 0) " stroke-linecap="round"/>
	<path d="M 64.995 40.524 h -13.06 l 6.309 -19.403 c 0.282 -0.869 -0.061 -1.819 -0.833 -2.308 c -0.776 -0.491 -1.781 -0.39 -2.443 0.237 L 23.632 48.665 c -0.596 0.562 -0.787 1.43 -0.485 2.192 c 0.303 0.761 1.039 1.26 1.858 1.26 h 11.991 l -4.734 16.839 c -0.24 0.851 0.109 1.759 0.858 2.232 c 0.328 0.207 0.698 0.309 1.067 0.309 c 0.473 0 0.944 -0.168 1.318 -0.495 l 30.808 -26.975 c 0.627 -0.549 0.847 -1.428 0.555 -2.208 S 65.828 40.524 64.995 40.524 z" style="stroke: none; stroke-width: 1; stroke-dasharray: none; stroke-linecap: butt; stroke-linejoin: miter; stroke-miterlimit: 10; fill: rgb(255,255,255); fill-rule: nonzero; opacity: 1;" transform=" matrix(1 0 0 1 0 0) " stroke-linecap="round"/>
</g>
</svg>