<svg xmlns="http://www.w3.org/2000/svg" xmlns:xlink="http://www.w3.org/1999/xlink" version="1.1" width="256" height="256" viewBox="0 0 256 256" xml:space="preserve">
<g style="stroke: none; stroke-width: 0; stroke-dasharray: none; stroke-linecap: butt; stroke-linejoin: miter; stroke-miterlimit: 10; fill: none; fill-rule: nonzero; opacity: 1;" transform="translate(1.4065934065934016 1.4065934065934016) scale(2.81 2.81)">
	<path d="M 85.719 34.074 c -0.062 -0.322 -0.15 -0.639 -0.291 -0.939 c -0.11 -0.235 -0.245 -0.461 -0.403 -0.674 s -0.34 -0.414 -0.545 -0.598 l -4.107 -3.683 c -1.643 -1.473 -4.168 -1.336 -5.641 0.307 l -26.834 29.92 c -0.144 0.16 -0.243 0.355 -0.288 0.565 l -2.327 10.861 c -0.2 0.933 0.689 1.73 1.595 1.43 l 10.544 -3.491 c 0.204 -0.068 0.387 -0.187 0.531 -0.348 l 20.484 -22.839 l 0 0 l 6.351 -7.081 c 0.184 -0.205 0.343 -0.424 0.477 -0.654 c 0.134 -0.229 0.243 -0.468 0.327 -0.714 C 85.82 35.469 85.852 34.758 85.719 34.074 z" style="stroke: none; stroke-width: 1; stroke-dasharray: none; stroke-linecap: butt; stroke-linejoin: miter; stroke-miterlimit: 10; fill: rgb(255,255,255); fill-rule: nonzero; opacity: 1;" transform=" matrix(1 0 0 1 0 0) " stroke-linecap="round"/>
	<path d="M 67.254 90 h -53.77 c -5.118 0 -9.281 -4.163 -9.281 -9.281 V 9.281 C 4.203 4.164 8.366 0 13.484 0 h 53.77 c 5.118 0 9.281 4.164 9.281 9.281 v 8.367 c 0 2.209 -1.791 4 -4 4 s -4 -1.791 -4 -4 V 9.281 C 68.535 8.575 67.96 8 67.254 8 h -53.77 c -0.707 0 -1.281 0.575 -1.281 1.281 v 71.438 c 0 0.706 0.575 1.281 1.281 1.281 h 53.77 c 0.706 0 1.281 -0.575 1.281 -1.281 V 65.08 c 0 -2.209 1.791 -4 4 -4 s 4 1.791 4 4 v 15.639 C 76.535 85.837 72.372 90 67.254 90 z" style="stroke: none; stroke-width: 1; stroke-dasharray: none; stroke-linecap: butt; stroke-linejoin: miter; stroke-miterlimit: 10; fill: rgb(255,255,255); fill-rule: nonzero; opacity: 1;" transform=" matrix(1 0 0 1 0 0) " stroke-linecap="round"/>
	<path d="M 60.236 22.06 H 20.501 c -2.209 0 -4 -1.791 -4 -4 s 1.791 -4 4 -4 h 39.735 c 2.209 0 4 1.791 4 4 S 62.445 22.06 60.236 22.06 z" style="stroke: none; stroke-width: 1; stroke-dasharray: none; stroke-linecap: butt; stroke-linejoin: miter; stroke-miterlimit: 10; fill: rgb(255,255,255); fill-rule: nonzero; opacity: 1;" transform=" matrix(1 0 0 1 0 0) " stroke-linecap="round"/>
	<path d="M 54.104 40.02 H 20.501 c -2.209 0 -4 -1.791 -4 -4 s 1.791 -4 4 -4 h 33.602 c 2.209 0 4 1.791 4 4 S 56.313 40.02 54.104 40.02 z" style="stroke: none; stroke-width: 1; stroke-dasharray: none; stroke-linecap: butt; stroke-linejoin: miter; stroke-miterlimit: 10; fill: rgb(255,255,255); fill-rule: nonzero; opacity: 1;" transform=" matrix(1 0 0 1 0 0) " stroke-linecap="round"/>
	<path d="M 39.21 57.98 H 20.501 c -2.209 0 -4 -1.791 -4 -4 s 1.791 -4 4 -4 H 39.21 c 2.209 0 4 1.791 4 4 S 41.419 57.98 39.21 57.98 z" style="stroke: none; stroke-width: 1; stroke-dasharray: none; stroke-linecap: butt; stroke-linejoin: miter; stroke-miterlimit: 10; fill: rgb(255,255,255); fill-rule: nonzero; opacity: 1;" transform=" matrix(1 0 0 1 0 0) " stroke-linecap="round"/>
	<path d="M 34.984 75.94 H 20.501 c -2.209 0 -4 -1.791 -4 -4 s 1.791 -4 4 -4 h 14.482 c 2.209 0 4 1.791 4 4 S 37.193 75.94 34.984 75.94 z" style="stroke: none; stroke-width: 1; stroke-dasharray: none; stroke-linecap: butt; stroke-linejoin: miter; stroke-miterlimit: 10; fill: rgb(255,255,255); fill-rule: nonzero; opacity: 1;" transform=" matrix(1 0 0 1 0 0) " stroke-linecap="round"/>
</g>
</svg>