<svg xmlns="http://www.w3.org/2000/svg" xmlns:xlink="http://www.w3.org/1999/xlink" version="1.1" width="256" height="256" viewBox="0 0 256 256" xml:space="preserve">
<g style="stroke: none; stroke-width: 0; stroke-dasharray: none; stroke-linecap: butt; stroke-linejoin: miter; stroke-miterlimit: 10; fill: none; fill-rule: nonzero; opacity: 1;" transform="translate(1.4065934065934016 1.4065934065934016) scale(2.81 2.81)">
	<path d="M 84.89 51.736 H 49.756 c -1.84 0 -3.332 1.492 -3.332 3.332 v 0 c 0 1.84 1.492 3.332 3.332 3.332 H 84.89 c 1.84 0 3.332 -1.492 3.332 -3.332 v 0 C 88.222 53.228 86.73 51.736 84.89 51.736 z" style="stroke: none; stroke-width: 1; stroke-dasharray: none; stroke-linecap: butt; stroke-linejoin: miter; stroke-miterlimit: 10; fill: rgb(255,255,255); fill-rule: nonzero; opacity: 1;" transform=" matrix(1 0 0 1 0 0) " stroke-linecap="round"/>
	<path d="M 23.833 58.036 c -1.355 0.329 -2.764 0.523 -4.22 0.523 c -1.457 0 -2.865 -0.194 -4.22 -0.523 v 24.037 l -5.138 7.919 H 28.97 l -5.138 -7.919 V 58.036 z" style="stroke: none; stroke-width: 1; stroke-dasharray: none; stroke-linecap: butt; stroke-linejoin: miter; stroke-miterlimit: 10; fill: rgb(255,255,255); fill-rule: nonzero; opacity: 1;" transform=" matrix(1 0 0 1 0 0) " stroke-linecap="round"/>
	<path d="M 33.836 0 H 5.389 C 3.395 0 1.778 1.617 1.778 3.611 v 22.811 h 35.669 V 3.611 C 37.447 1.617 35.83 0 33.836 0 z M 6.142 10.473 l 6.624 -6.055 c 0.407 -0.373 1.041 -0.344 1.413 0.063 s 0.344 1.04 -0.063 1.413 l -6.624 6.055 c -0.192 0.175 -0.434 0.262 -0.674 0.262 c -0.271 0 -0.542 -0.109 -0.739 -0.325 C 5.706 11.478 5.734 10.846 6.142 10.473 z M 21.223 6.83 L 8.427 18.527 c -0.192 0.175 -0.434 0.262 -0.674 0.262 c -0.271 0 -0.542 -0.109 -0.739 -0.325 c -0.373 -0.408 -0.344 -1.04 0.063 -1.413 L 19.873 5.353 c 0.409 -0.373 1.042 -0.343 1.413 0.063 C 21.659 5.824 21.63 6.457 21.223 6.83 z" style="stroke: none; stroke-width: 1; stroke-dasharray: none; stroke-linecap: butt; stroke-linejoin: miter; stroke-miterlimit: 10; fill: rgb(255,255,255); fill-rule: nonzero; opacity: 1;" transform=" matrix(1 0 0 1 0 0) " stroke-linecap="round"/>
	<path d="M 22.318 37.485 v -4.081 c 0 -1.494 -1.211 -2.706 -2.706 -2.706 c -1.494 0 -2.706 1.211 -2.706 2.706 v 4.081 H 1.778 v 1.24 c 0 9.85 7.985 17.835 17.835 17.835 h 0 c 9.85 0 17.835 -7.985 17.835 -17.835 v -1.24 H 22.318 z" style="stroke: none; stroke-width: 1; stroke-dasharray: none; stroke-linecap: butt; stroke-linejoin: miter; stroke-miterlimit: 10; fill: rgb(255,255,255); fill-rule: nonzero; opacity: 1;" transform=" matrix(1 0 0 1 0 0) " stroke-linecap="round"/>
	<path d="M 53.525 12.449 c -0.553 0 -1 -0.448 -1 -1 V 8.628 c 0 -0.552 0.447 -1 1 -1 s 1 0.448 1 1 v 2.821 C 54.525 12.001 54.078 12.449 53.525 12.449 z" style="stroke: none; stroke-width: 1; stroke-dasharray: none; stroke-linecap: butt; stroke-linejoin: miter; stroke-miterlimit: 10; fill: rgb(255,255,255); fill-rule: nonzero; opacity: 1;" transform=" matrix(1 0 0 1 0 0) " stroke-linecap="round"/>
	<path d="M 53.525 19.737 c -0.553 0 -1 -0.448 -1 -1 v -2.82 c 0 -0.552 0.447 -1 1 -1 s 1 0.448 1 1 v 2.82 C 54.525 19.29 54.078 19.737 53.525 19.737 z" style="stroke: none; stroke-width: 1; stroke-dasharray: none; stroke-linecap: butt; stroke-linejoin: miter; stroke-miterlimit: 10; fill: rgb(255,255,255); fill-rule: nonzero; opacity: 1;" transform=" matrix(1 0 0 1 0 0) " stroke-linecap="round"/>
	<path d="M 51.291 14.683 h -2.82 c -0.553 0 -1 -0.448 -1 -1 s 0.447 -1 1 -1 h 2.82 c 0.553 0 1 0.448 1 1 S 51.844 14.683 51.291 14.683 z" style="stroke: none; stroke-width: 1; stroke-dasharray: none; stroke-linecap: butt; stroke-linejoin: miter; stroke-miterlimit: 10; fill: rgb(255,255,255); fill-rule: nonzero; opacity: 1;" transform=" matrix(1 0 0 1 0 0) " stroke-linecap="round"/>
	<path d="M 58.58 14.683 h -2.82 c -0.553 0 -1 -0.448 -1 -1 s 0.447 -1 1 -1 h 2.82 c 0.553 0 1 0.448 1 1 S 59.133 14.683 58.58 14.683 z" style="stroke: none; stroke-width: 1; stroke-dasharray: none; stroke-linecap: butt; stroke-linejoin: miter; stroke-miterlimit: 10; fill: rgb(255,255,255); fill-rule: nonzero; opacity: 1;" transform=" matrix(1 0 0 1 0 0) " stroke-linecap="round"/>
	<line x1="0" y1="-1.4105" x2="0" y2="1.4105" style="stroke: none; stroke-width: 1; stroke-dasharray: none; stroke-linecap: butt; stroke-linejoin: miter; stroke-miterlimit: 10; fill: rgb(255,255,255); fill-rule: nonzero; opacity: 1;" transform=" matrix(1 0 0 1 0 0) "/>
	<path d="M 72.428 6.99 c -0.553 0 -1 -0.448 -1 -1 v -2.82 c 0 -0.552 0.447 -1 1 -1 s 1 0.448 1 1 v 2.82 C 73.428 6.542 72.98 6.99 72.428 6.99 z" style="stroke: none; stroke-width: 1; stroke-dasharray: none; stroke-linecap: butt; stroke-linejoin: miter; stroke-miterlimit: 10; fill: rgb(255,255,255); fill-rule: nonzero; opacity: 1;" transform=" matrix(1 0 0 1 0 0) " stroke-linecap="round"/>
	<line x1="0" y1="-1.4104999999999999" x2="0" y2="1.4104999999999999" style="stroke: none; stroke-width: 1; stroke-dasharray: none; stroke-linecap: butt; stroke-linejoin: miter; stroke-miterlimit: 10; fill: rgb(255,255,255); fill-rule: nonzero; opacity: 1;" transform=" matrix(1 0 0 1 0 0) "/>
	<path d="M 72.428 14.279 c -0.553 0 -1 -0.448 -1 -1 v -2.821 c 0 -0.552 0.447 -1 1 -1 s 1 0.448 1 1 v 2.821 C 73.428 13.831 72.98 14.279 72.428 14.279 z" style="stroke: none; stroke-width: 1; stroke-dasharray: none; stroke-linecap: butt; stroke-linejoin: miter; stroke-miterlimit: 10; fill: rgb(255,255,255); fill-rule: nonzero; opacity: 1;" transform=" matrix(1 0 0 1 0 0) " stroke-linecap="round"/>
	<line x1="-1.410499999999999" y1="0" x2="1.410499999999999" y2="0" style="stroke: none; stroke-width: 1; stroke-dasharray: none; stroke-linecap: butt; stroke-linejoin: miter; stroke-miterlimit: 10; fill: rgb(255,255,255); fill-rule: nonzero; opacity: 1;" transform=" matrix(1 0 0 1 0 0) "/>
	<path d="M 70.194 9.224 h -2.821 c -0.553 0 -1 -0.448 -1 -1 s 0.447 -1 1 -1 h 2.821 c 0.553 0 1 0.448 1 1 S 70.747 9.224 70.194 9.224 z" style="stroke: none; stroke-width: 1; stroke-dasharray: none; stroke-linecap: butt; stroke-linejoin: miter; stroke-miterlimit: 10; fill: rgb(255,255,255); fill-rule: nonzero; opacity: 1;" transform=" matrix(1 0 0 1 0 0) " stroke-linecap="round"/>
	<line x1="-1.410499999999999" y1="0" x2="1.410499999999999" y2="0" style="stroke: none; stroke-width: 1; stroke-dasharray: none; stroke-linecap: butt; stroke-linejoin: miter; stroke-miterlimit: 10; fill: rgb(255,255,255); fill-rule: nonzero; opacity: 1;" transform=" matrix(1 0 0 1 0 0) "/>
	<path d="M 77.482 9.224 h -2.82 c -0.553 0 -1 -0.448 -1 -1 s 0.447 -1 1 -1 h 2.82 c 0.553 0 1 0.448 1 1 S 78.035 9.224 77.482 9.224 z" style="stroke: none; stroke-width: 1; stroke-dasharray: none; stroke-linecap: butt; stroke-linejoin: miter; stroke-miterlimit: 10; fill: rgb(255,255,255); fill-rule: nonzero; opacity: 1;" transform=" matrix(1 0 0 1 0 0) " stroke-linecap="round"/>
	<path d="M 80.203 23.119 h -25.76 c -2.295 0 -4.156 1.861 -4.156 4.156 v 0.767 h 23.457 c 0.553 0 1 0.448 1 1 s -0.447 1 -1 1 H 50.287 v 19.694 h 34.071 V 27.275 C 84.359 24.98 82.498 23.119 80.203 23.119 z" style="stroke: none; stroke-width: 1; stroke-dasharray: none; stroke-linecap: butt; stroke-linejoin: miter; stroke-miterlimit: 10; fill: rgb(255,255,255); fill-rule: nonzero; opacity: 1;" transform=" matrix(1 0 0 1 0 0) " stroke-linecap="round"/>
	<path d="M 85.449 60.401 H 49.197 c 0.589 5.567 3.185 10.442 6.955 13.708 h 9.171 c 0.553 0 1 0.447 1 1 s -0.447 1 -1 1 h -8.131 L 54.295 90 h 26.056 l -3.106 -14.891 C 81.689 71.887 84.796 66.565 85.449 60.401 z" style="stroke: none; stroke-width: 1; stroke-dasharray: none; stroke-linecap: butt; stroke-linejoin: miter; stroke-miterlimit: 10; fill: rgb(255,255,255); fill-rule: nonzero; opacity: 1;" transform=" matrix(1 0 0 1 0 0) " stroke-linecap="round"/>
</g>
</svg>